<?xml version='1.0' encoding='utf-8'?>
<svg xmlns="http://www.w3.org/2000/svg" version="1.1" width="600px" height="976px" viewBox="0 0 600 976"> <g id="layer1"> <g style="fill:rgb(0,0,0); fill-opacity:1.0; stroke-linejoin: miter"> <path d="M332.0818,413.08728C332.0908,413.08728,332.0996,413.08728,332.10815,413.08734C332.29706,413.089,332.36914,413.10492,332.2734,413.12085C332.21973,413.12903,332.15167,413.13318,332.08453,413.13324C332.07986,413.13324,332.07526,413.13318,332.07062,413.13306C332.00717,413.13263,331.9454,413.12823,331.8984,413.12036C331.79086,413.10376,331.87222,413.08734,332.07727,413.08728 Z M351.6616,415.94208C351.67093,415.94208,351.68,415.94208,351.6888,415.94214C351.87704,415.94366,351.94882,415.95972,351.8532,415.97565C351.79953,415.98383,351.73148,415.9879,351.66434,415.98798C351.65976,415.98798,351.65515,415.9879,351.6506,415.9879C351.58707,415.9873,351.52533,415.98303,351.47827,415.9751C351.37076,415.95862,351.45203,415.94208,351.65714,415.94208 Z M353.52145,442.5351C353.53033,442.53516,353.5397,442.53784,353.54907,442.5434C353.59906,442.56854,353.63232,442.62695,353.6323,442.67706C353.63217,442.71863,353.59903,442.75183,353.54922,442.75183L353.549,442.75183L353.5484,442.7519C353.5069,442.75153,353.46558,442.6933,353.46564,442.6184C353.4657,442.5669,353.49075,442.53516,353.52145,442.5351 Z M71.40747,466.36456L71.40619,466.36462C71.38507,466.3653,71.36633,466.37354,71.35141,466.38745C71.314514,466.42108,71.300354,466.489,71.33142,466.5575C71.3485,466.5951,71.37653,466.6161,71.40675,466.6161L71.40793,466.6161C71.422424,466.61566,71.43729,466.6103,71.45203,466.60046C71.45865,466.59583,71.46472,466.59076,71.470245,466.5857C71.54117,466.5205,71.53317,466.4159,71.44644,466.37225C71.43292,466.367,71.41983,466.36456,71.40747,466.36456 Z M313.23743,474.5489Q313.52704,474.71368,313.88223,474.90216L313.88046,474.90216C313.89276,474.9231,313.9055,474.94318,313.91855,474.96228L313.91678,474.96228Q313.97458,475.4187,314.05652,475.84888L313.23386,474.5489 Z M90.83179,482.6117C90.85136,482.6117,90.8966,482.69476,90.94949,482.84253C90.97131,482.90485,90.974915,482.94653,90.96033,482.95923C90.957184,482.96295,90.953125,482.9643,90.94818,482.96442L90.9478,482.96442C90.944725,482.96442,90.941315,482.96338,90.93756,482.96277C90.901276,482.94354,90.85724,482.83972,90.835754,482.7359C90.82086,482.66486,90.81891,482.62592,90.82654,482.6151L90.82919,482.61218C90.83011,482.61218,90.83099,482.6117,90.831726,482.6117 Z M319.25998,484.0655Q319.47473,484.2956,319.7003,484.53442L319.69843,484.53442C319.77844,484.64575,319.867,484.73755,319.96603,484.81427C319.9674,484.8153,319.96872,484.8161,319.97012,484.81708L319.96823,484.81708Q320.0686,484.9226,320.17096,485.0298L320.1412,484.9524L320.1449,484.9524C320.3083,485.09467,320.37128,485.21198,320.32172,485.2989L320.31976,485.2989C320.25452,485.3402,320.1895,485.3822,320.1249,485.42462L320.12305,485.42444C320.12122,485.42505,320.11932,485.4256,320.1174,485.4262L319.25632,484.0655 Z M282.28625,494.0863L283.1614,495.40228C282.99628,495.3869,282.90744,495.3719,282.89252,495.3568C282.88437,495.34607,282.8595,495.2943,282.823,495.21326L282.82153,495.2132L282.8212,495.2376Q282.54904,494.65686,282.28293,494.0863 Z M93.24205,502.78223C93.49887,502.78223,93.6676,502.87463,93.8114,503.0692C93.95804,503.26453,93.98123,503.3593,93.97461,503.6537C93.95862,503.9768,93.78833,504.76355,93.64203,505.15533C93.610565,505.23676,93.54645,505.48175,93.50531,505.69635C93.46048,505.90582,93.384155,506.1963,93.341,506.34552C93.294464,506.48962,93.26376,506.7185,93.27469,506.85956L93.29883,507.10266L93.59161,507.18823C93.715225,507.2248,93.823944,507.24512,93.93132,507.24512C93.93712,507.24512,93.94292,507.24506,93.9487,507.24493L93.95889,507.24463C94.21246,507.2367,94.4646,507.1159,94.894806,506.83716C95.177704,506.65442,95.44263,506.50555,95.496826,506.5039L95.49716,506.50385L95.49875,506.50385C95.49971,506.50385,95.50049,506.5039,95.50122,506.50415C95.543884,506.51135,95.56479,506.64563,95.556335,506.8222C95.53528,507.20038,95.56094,507.38324,95.70581,507.86835C95.76987,508.08417,95.84708,508.40118,95.87436,508.575C95.90161,508.7489,95.97107,508.98285,96.01828,509.09064C96.07056,509.1955,96.10312,509.3144,96.088776,509.3465C96.03131,509.47504,96.27725,509.7047,96.52475,509.74817C96.563065,509.75464,96.600266,509.75824,96.63747,509.75824C96.64157,509.75824,96.64569,509.75818,96.64981,509.75812L96.65668,509.75787C96.86063,509.75153,97.06784,509.63617,97.45764,509.32825C97.64041,509.18237,97.81442,509.10864,97.975586,509.10364L97.982025,509.10345C97.985565,509.1034,97.989105,509.10333,97.992645,509.10333C98.0854,509.10333,98.17374,509.1261,98.25726,509.17163C98.35571,509.22723,98.47325,509.25482,98.60176,509.25482C98.608536,509.25482,98.615326,509.2547,98.62216,509.25458L98.63382,509.2542C98.80554,509.24884,98.99509,509.1966,99.183014,509.0985C99.25745,509.06165,99.31381,509.0266,99.36209,508.982C99.43259,508.91766,99.48529,508.83472,99.54996,508.7019C99.70676,508.3772,99.76782,507.79346,99.69141,507.44592C99.647125,507.23804,99.674286,507.08893,99.77536,506.99677C99.83453,506.94293,99.91879,506.90778,100.02835,506.89172C100.10315,506.8817,100.18005,506.87567,100.25729,506.87323C100.268555,506.87286,100.2798,506.87256,100.29106,506.87256L100.29245,506.87256C100.30919,506.8722,100.32593,506.87207,100.34265,506.87207C100.61737,506.87207,100.88815,506.91675,101.07674,507.0005C101.21248,507.05438,101.57677,507.1568,101.89433,507.22534C102.43361,507.3321,103.67835,507.72644,103.731544,507.80078C103.742134,507.8155,103.82099,507.8423,103.89759,507.85614C104.06336,507.88873,105.70667,508.5174,106.09542,508.7068C106.216835,508.76123,106.3343,508.8023,106.38172,508.8023C106.3823,508.8023,106.38288,508.80225,106.383446,508.80225L106.38567,508.8022C106.39202,508.802,106.39681,508.8006,106.399895,508.7989C106.40179,508.7976,106.40481,508.7967,106.40902,508.79657L106.41161,508.7965L106.41274,508.7965C106.535484,508.7965,107.37646,509.12476,108.15179,509.4566L108.14391,509.45685C107.46337,510.79504,106.76031,512.1863,106.13357,513.43616C105.97552,513.3964,105.80389,513.35504,105.6168,513.3121C104.85706,513.1363,104.93241,513.1587,104.42426,512.94904C104.2143,512.8592,103.93859,512.79675,103.7871,512.79675C103.784035,512.79675,103.78101,512.79675,103.77805,512.7968C103.77076,512.79706,103.76353,512.7973,103.75681,512.7979L103.73902,512.79803C103.73087,512.7982,103.72265,512.7983,103.71435,512.7983C103.57777,512.7983,103.422844,512.77673,103.34977,512.73987C103.27393,512.6967,102.907326,512.633,102.53801,512.5856C102.1772,512.5408,101.56624,512.41754,101.19847,512.31C100.82216,512.201,100.2959,512.0703,100.024414,512.01495C99.74838,511.96185,99.34335,511.86517,99.121124,511.80505C98.89548,511.73975,98.53592,511.68597,98.313446,511.67786C98.09445,511.67413,97.70001,511.59296,97.43451,511.50287C97.17044,511.40503,96.7337,511.26422,96.46661,511.18274C96.19446,511.10547,95.772156,510.9322,95.52725,510.79877C94.97208,510.5028,94.2384,510.2489,93.57138,510.11932C93.27768,510.0647,92.912445,509.94037,92.69675,509.81586C92.487976,509.7021,92.19406,509.57227,92.03992,509.52344C91.62155,509.4027,90.998314,509.2995,90.70052,509.2995C90.69259,509.2995,90.68489,509.29956,90.67743,509.29974L90.664185,509.30017C90.62985,509.3012,90.601135,509.30414,90.57916,509.3089C90.535095,509.31842,90.486725,509.32397,90.43536,509.32556L90.424286,509.32593C90.41809,509.32605,90.41185,509.32605,90.40558,509.32605C90.191055,509.32605,89.93072,509.26093,89.71567,509.14563C89.437775,508.99744,89.24914,508.63916,88.96694,507.7215C88.68008,506.80762,88.65154,506.0251,88.85021,504.94293C88.96972,504.31995,89.17046,503.76227,89.33182,503.61426C89.33917,503.60797,89.346344,503.60205,89.353485,503.59692C89.39975,503.5642,90.18564,503.42108,90.34393,503.41614L90.3475,503.41602C90.3494,503.41595,90.351204,503.41595,90.35289,503.41595C90.36027,503.41595,90.365524,503.4165,90.36853,503.41742C90.37253,503.41888,90.37927,503.41907,90.38849,503.41925L90.39105,503.41913C90.52359,503.41504,91.125,503.28088,91.692535,503.12585C91.93173,503.06354,92.19321,503.00055,92.26224,502.98212C92.33124,502.96375,92.56033,502.90826,92.76767,502.8526C92.9364,502.81036,93.079346,502.7868,93.202576,502.78296L93.2193,502.78247C93.22696,502.7823,93.23454,502.78223,93.24205,502.78223 Z M112.31585,512.77386C112.55714,512.95734,113.08207,513.65985,113.23176,514.0148C113.31315,514.2032,113.41749,514.41205,113.46186,514.4847C113.63975,514.7753,113.83109,515.19037,113.998726,515.6666C114.00767,515.6915,114.01682,515.71643,114.0261,515.74176C113.23737,515.55096,112.46482,515.3649,111.74438,515.1919L111.736565,515.19214C111.882195,514.43427,112.08102,513.60034,112.30801,512.7741L112.31585,512.77386 Z M340.90884,548.4863C340.96716,548.48676,341.05002,548.56165,341.0997,548.64484C341.2411,548.9199,341.33157,550.0283,341.33804,551.7282C341.3528,553.40326,341.44284,554.9367,341.59982,556.13684C341.68246,556.74506,341.67404,556.8535,341.54883,557.0368C341.46948,557.15955,341.37326,557.22974,341.20313,557.22974L341.20282,557.22974L341.19745,557.2296C340.84705,557.2267,340.18658,556.9319,338.73315,556.2003C337.66708,555.67413,336.45105,555.12286,336.01788,554.98065C335.0432,554.6714,333.21103,553.6525,333.36957,553.51117C333.4279,553.4611,334.50357,552.804,335.76276,552.06396C338.87305,550.22565,340.5993,549.0527,340.59958,548.7944C340.5997,548.6525,340.7664,548.4864,340.908,548.4863 Z M183.28017,558.7558L183.28328,558.75586C183.41454,558.75726,183.56824,558.91034,183.56876,559.0415C183.56976,559.2818,185.17905,560.36804,188.07782,562.06903C189.25131,562.75385,190.25389,563.36206,190.3083,563.40845C190.45616,563.5394,188.75473,564.4926,187.8489,564.7832C187.44637,564.9167,186.31665,565.433,185.32646,565.92566C183.9765,566.61035,183.36296,566.88654,183.037,566.89026L183.03201,566.8904L183.03172,566.8904C183.02908,566.8904,183.02646,566.8904,183.02386,566.8903C182.88733,566.88885,182.80261,566.8374,182.73419,566.74713L182.73265,566.74713L182.73265,565.2345L182.7311,565.2345C182.82866,564.2336,182.88303,563.0472,182.89034,561.7728C182.89142,560.1916,182.97235,559.1601,183.1031,558.9039C183.14908,558.82623,183.22595,558.7564,183.28017,558.7558 Z M53.73492,465.19293C53.7252,465.19293,53.715492,465.193,53.705795,465.19318L53.685684,465.19385C53.547253,465.19806,53.4109,465.22058,53.271862,465.2599C52.914715,465.35956,52.106365,465.9037,51.55311,466.41138C51.52555,466.437,51.498726,466.46143,51.47254,466.48663C51.4401,466.51807,51.40943,466.54706,51.37995,466.5744C51.155556,466.78052,50.998238,466.87524,50.64692,467.04138C50.383522,467.16577,50.11412,467.2713,50.04271,467.27637C50.04042,467.2765,50.037674,467.27698,50.03459,467.27704C50.033928,467.27704,50.033257,467.2771,50.032562,467.2771C49.948303,467.2771,49.653374,467.17395,49.363907,467.0395C48.66926,466.71783,48.36178,466.60632,48.14618,466.60632C48.142067,466.60632,48.137978,466.60638,48.133926,466.60645L48.125076,466.60675C48.090927,466.6078,48.059067,466.6117,48.027763,466.61792C47.908134,466.6444,47.802086,466.69928,47.703148,466.79016C47.571404,466.9109,47.45211,467.09583,47.329308,467.36096C47.0707,467.9192,46.921623,468.2107,46.74578,468.3722C46.586746,468.5182,46.406086,468.5575,46.103077,468.59216C45.80199,468.62555,45.69231,468.6651,45.565784,468.7812C45.558064,468.78876,45.550312,468.79633,45.54253,468.80347C45.106342,469.22095,44.922077,469.94794,45.06209,470.68842C45.10097,470.89807,45.113758,471.08215,45.094837,471.09943C45.094532,471.09943,45.09438,471.09985,45.094074,471.10028C45.09377,471.10028,45.09334,471.1007,45.09319,471.1007C45.07546,471.11713,45.108967,471.20465,45.171955,471.29205C45.318256,471.49677,45.351154,471.98254,45.249928,472.42737C45.15633,472.85168,45.053608,473.04346,44.775806,473.30487C44.398945,473.65747,43.850697,474.29547,43.799335,474.44293C43.778706,474.50372,43.718006,474.58405,43.651814,474.64465C43.633045,474.66187,43.613483,474.67834,43.594257,474.69153C43.52257,474.7417,43.46065,474.78955,43.407978,474.83752C43.12328,475.0987,43.103657,475.38373,43.201954,476.23688C43.2412,476.5534,43.26778,476.84106,43.258442,476.87024C43.20995,477.00134,43.690388,478.10095,43.976612,478.52155C44.02306,478.58636,43.81954,479.6106,43.70772,479.88263C43.56286,480.2456,43.458763,481.43945,43.501213,482.3662C43.533257,483.1433,43.741657,484.4168,43.938038,485.05676C44.154804,485.75665,44.650043,486.84485,45.055775,487.49493C45.549976,488.29956,46.195423,489.4615,46.36495,489.86536C46.549854,490.3111,47.10656,491.10846,47.416588,491.38483C47.639122,491.58026,48.283012,492.01855,48.731743,492.2793C48.860252,492.3537,49.10836,492.502,49.280235,492.60596C50.30449,493.24042,51.331375,493.6505,52.69893,493.9712C52.96129,494.03412,53.332596,494.15546,53.524216,494.2458L53.87974,494.4074L54.07844,494.82056C54.25248,495.18042,54.382,495.3296,54.572163,495.3296C54.574703,495.3296,54.57725,495.3296,54.579815,495.32953L54.585644,495.32935C54.662792,495.32697,54.750195,495.30066,54.854473,495.25513L55.100872,495.15076L55.42985,495.54724C55.63151,495.7868,55.87147,496.00647,56.027325,496.09912C56.287487,496.25317,56.342266,496.3189,57.493393,497.75885C57.85994,498.2188,58.593613,499.05536,58.710464,499.1452C58.74901,499.17767,59.057693,499.4834,59.391403,499.8249C59.720345,500.16858,60.074135,500.49524,60.17301,500.56C60.268562,500.62042,60.51969,500.8247,60.720955,501.01227C61.271004,501.52905,62.61618,502.4673,63.236053,502.7791C63.43094,502.8742,63.732086,502.99158,63.90518,503.03455C64.078186,503.0775,64.44165,503.2409,64.71344,503.40106C65.07852,503.6079,65.28134,503.6825,65.49567,503.68958C65.65369,503.6908,66.027435,503.79492,66.32841,503.9124C67.01505,504.1925,67.64423,504.37122,68.26551,504.46643C68.52674,504.50745,68.75602,504.55597,68.76658,504.57068C68.77714,504.58575,69.119484,504.667,69.52445,504.7417C69.9329,504.8216,70.27536,504.90234,70.29303,504.92743C70.2989,504.9353,70.31061,504.93903,70.3255,504.93903L70.32568,504.93903L70.326935,504.93896C70.34805,504.9383,70.375305,504.92932,70.401184,504.91144C70.417694,504.9004,70.434204,504.89417,70.44891,504.89374L70.450134,504.89368L70.45107,504.89368C70.47576,504.89368,70.494774,504.90802,70.498566,504.9328C70.51367,504.9746,70.56918,505.01025,70.63037,505.0116C70.69162,505.01416,70.81372,505.12207,70.93103,505.2859C71.010345,505.3894,71.1853,505.55792,71.37219,505.71582C65.98096,504.54694,61.64335,503.69788,57.610184,503.00067C53.80455,502.37323,49.65502,501.75684,48.390526,501.6817C47.77835,501.64856,47.150505,501.6325,46.512203,501.6325C46.10219,501.6325,45.687862,501.6391,45.27062,501.6521C39.204464,501.84106,32.520172,503.3711,29.460121,505.36896C25.41398,508.07648,24.15089,513.5656,26.942757,516.63385C28.10951,517.90643,30.665028,518.6288,33.09923,518.6288C33.225353,518.6288,33.35115,518.6269,33.47641,518.623C34.747864,518.5833,35.96402,518.34143,36.90555,517.87244C37.73816,517.4231,38.244354,517.19196,38.833893,517.1736C38.859337,517.1728,38.88494,517.1724,38.91073,517.1724C39.50186,517.1724,40.191895,517.3804,41.377556,517.7904C44.683495,518.9495,48.198845,521.3066,50.10961,523.71344C51.72118,525.7287,52.512657,527.19574,65.30845,551.2345C69.98703,560.02423,73.5161,566.4607,76.575806,571.40375L77.019295,571.40375L77.01928,619.92456L77.04363,619.92456L89.48657,619.9245L89.48659,571.40375L169.49068,571.4037L169.49068,574.82587L169.48926,574.82587C169.11572,575.0553,168.70457,575.30774,168.2502,575.5868C162.8608,578.88855,160.936,580.1914,160.31906,580.95374C159.54784,581.9028,159.23103,582.1521,158.0784,582.7229C156.41513,583.55145,154.11627,584.39075,151.05794,585.2952C149.93826,585.6263,149.19908,585.7817,148.7222,585.7872L148.7028,585.7873C148.69244,585.7873,148.68222,585.78723,148.6721,585.7871C148.59216,585.78625,148.52011,585.78094,148.45523,585.77106C148.27676,585.7411,147.77231,585.60345,147.32214,585.4659C146.46013,585.1885,145.66959,585.0697,144.38214,585.0557C144.29446,585.0548,144.20448,585.0543,144.11201,585.0543C144.08296,585.0543,144.05368,585.0543,144.02414,585.05444C143.9364,585.05475,143.8465,585.0554,143.75426,585.0565C143.50612,585.05927,143.24095,585.06525,142.95595,585.0732C141.07242,585.1199,140.04962,585.256,139.28336,585.5461C138.45528,585.85974,138.38663,586.1467,138.27026,589.79877C138.23634,590.96936,138.20697,593.1866,138.21338,594.72144C138.2243,597.31067,138.14923,601.5747,138.05844,603.9476C138.00227,605.34314,137.89038,606.38226,137.71555,607.205C137.18304,609.62555,136.98024,614.85156,137.34418,616.6019C137.58142,617.7251,137.83945,618.2277,138.51659,618.8761C139.26373,619.57056,140.80173,620.3084,142.49365,620.76636C143.04721,620.9166,143.28764,620.9586,143.98845,620.96625C144.0773,620.96716,144.17354,620.9675,144.27876,620.9675C144.33234,620.9675,144.38824,620.96747,144.44667,620.9673L144.45752,620.9673C144.47986,620.9673,144.50252,620.96716,144.5256,620.9671C144.58102,620.9672,144.63434,620.9673,144.6857,620.9673C144.71535,620.9673,144.74434,620.9672,144.7727,620.9672C144.84752,620.96704,144.91803,620.96643,144.98471,620.96564C145.71822,620.95734,145.98584,620.91364,146.46288,620.7807C147.30693,620.55237,147.82526,620.30206,148.17262,619.9518C148.62045,619.5159,148.74309,619.1899,148.73233,618.47675C148.71358,617.717,148.55652,617.2214,147.87627,615.8444C147.18823,614.45966,147.10155,614.11127,147.15147,613.0956C147.24496,611.35864,147.68532,609.16296,148.30574,607.3619C148.71162,606.18176,149.34209,604.9542,150.08963,603.8967C150.85254,602.8084,151.21423,602.17896,151.41328,601.5888C151.61235,600.99884,151.77402,600.71155,152.18253,600.16705C154.52618,597.07166,161.24841,591.7951,164.08939,590.8143C164.40524,590.7049,164.7365,590.6184,164.83896,590.6173L164.84557,590.6173C165.14854,590.6206,165.66069,591.0218,166.4738,591.905C167.7858,593.32117,168.26172,593.77826,168.449,593.7803L168.45064,593.7803L168.45233,593.7802C168.59108,593.7786,168.88484,593.6353,169.48927,593.25305L169.49068,593.25305L169.49068,619.92456L175.00552,619.92456C175.0312,620.34955,175.05177,620.5636,175.06752,620.5753C175.07597,620.5805,175.13496,620.58356,175.23454,620.5846C175.2634,620.58496,175.29565,620.5851,175.33107,620.5851C175.34564,620.5851,175.36076,620.5851,175.37639,620.585C175.43019,620.58484,175.49011,620.5843,175.55553,620.58356C176.44336,620.57324,178.33473,620.5112,179.48582,620.4479C179.93538,620.4227,180.49342,620.40497,180.7338,620.3962L181.16785,620.3942L181.2649,619.9245L181.958,619.9245L181.958,617.3851L182.72855,617.29486C183.34799,617.2248,184.3746,617.18365,185.45465,617.171C185.62508,617.16907,185.7968,617.1678,185.96854,617.1673C186.03075,617.1671,186.09296,617.167,186.15509,617.167C186.37602,617.167,186.59602,617.1682,186.8121,617.17053C187.87053,617.18207,188.83517,617.2219,189.35674,617.29C190.8652,617.486,192.62886,617.5946,194.57567,617.6158C194.81291,617.61835,195.05287,617.6196,195.29541,617.6196C195.36528,617.6196,195.43535,617.61957,195.50563,617.6193L195.50783,617.6193C195.70593,617.61865,195.90569,617.6175,196.10701,617.6152C197.68428,617.5969,199.36035,617.5263,201.10167,617.4037C201.4659,617.379,201.88434,617.3383,202.03159,617.32227C202.17879,617.306,202.52748,617.26587,202.80647,617.2414C203.71306,617.1523,205.11514,616.8906,205.60286,616.7258C206.81042,616.30994,207.7613,615.6701,208.00699,615.111C208.13754,614.81586,208.1449,614.73047,208.05856,614.48285C207.72874,613.46875,206.93619,613.03784,202.4333,611.46765C199.25027,610.3569,198.06973,609.8348,196.83362,608.99475C196.36716,608.6712,195.80754,608.3246,195.59776,608.2169C195.38022,608.10944,194.71191,607.717,194.12114,607.3475C192.72208,606.4773,191.75858,605.9388,190.31361,605.2161C189.03181,604.5782,188.38632,604.07684,187.94153,603.389C187.11436,602.1132,187.17584,600.1361,188.10553,598.1552C188.6294,597.0263,189.11868,596.5838,189.90265,596.57477C189.90862,596.57465,189.91466,596.57465,189.92072,596.5746C189.93073,596.5746,189.9408,596.57465,189.95093,596.57477C190.02592,596.57556,190.10365,596.58014,190.18433,596.5884C190.44795,596.61035,191.22406,596.82416,191.90727,597.0539C192.59033,597.27594,193.23459,597.4747,193.34315,597.4818C193.3876,597.48444,193.43048,597.48596,193.47194,597.4864C193.48265,597.4865,193.49327,597.4866,193.5038,597.4866C193.50966,597.48645,193.51558,597.48645,193.52141,597.48645C194.29608,597.4775,194.57788,597.03217,195.47093,594.65894C195.75468,593.9212,196.169,592.8964,196.39932,592.3838C197.49773,589.9526,198.19643,588.34503,198.91753,586.559C200.12984,583.56934,200.6676,582.39636,201.10674,581.74347C201.39941,581.30804,202.13016,579.93274,203.08331,578.014C204.88217,574.40955,205.39839,573.63965,206.51923,572.8986C207.45468,572.2822,208.482,571.3941,209.74031,570.12524C211.44629,568.3969,212.22449,567.2544,212.76054,565.68604C213.00568,564.9796,213.01309,564.9021,213.00838,563.7857C213.00456,562.871,212.96402,562.4526,212.82185,561.83307C212.49004,560.35376,212.58118,559.9037,213.48189,558.3958C215.45264,555.1319,216.27827,552.3608,216.01982,549.90454C215.83415,548.13007,215.24068,547.1091,213.60696,545.7517C211.24988,543.808,209.04385,542.76306,205.51309,541.9329C203.77486,541.5214,202.68105,541.3324,197.63881,540.5551C192.53464,539.7705,189.92024,539.3317,187.31339,538.8233C186.39857,538.6444,184.7795,538.35297,182.73419,537.9987L182.73264,537.9987L182.73264,525.1079L182.7311,525.1079C181.48254,525.88257,180.04474,526.78937,178.37262,527.85345L178.37257,527.85345C178.14308,527.85443,177.91643,527.8549,177.69272,527.8549C176.10815,527.8549,174.67114,527.8304,173.41904,527.78284L173.41757,527.78284C173.44917,527.7359,173.47998,527.68976,173.51006,527.6442L173.50832,527.6442Q172.5592,527.6745,171.69554,527.6952C170.75172,527.6328,169.96944,527.5527,169.37514,527.45593C167.2976,527.0615,164.29973,526.58154,162.74336,526.34314C156.05429,525.2318,146.47122,523.2934,135.89766,520.8691C132.25674,520.0076,128.32936,519.15436,127.231476,518.9017C126.59308,518.75494,125.38837,518.48975,124.05975,518.1829L124.05203,518.18317Q123.700066,517.3814,123.34789,516.73456Q122.032616,514.28827,120.5353,513.736Q119.97382,513.5247,119.357796,513.5247Q119.32285,513.5247,119.28774,513.5254Q119.26269,513.52576,119.23757,513.52655Q119.19561,513.5279,119.153465,513.53L119.15084,513.53296C118.96722,513.2672,118.75103,512.95496,118.57899,512.70105C118.28419,512.2763,117.95927,511.87244,117.80424,511.72815C117.47193,511.4187,117.05042,510.8377,116.99113,510.59784C116.95292,510.4389,116.5727,509.6433,116.08317,508.69434C115.97553,508.48035,115.71372,508.09106,115.49955,507.83282C115.23463,507.4989,115.09617,507.2907,114.97947,507.02655L114.97166,507.0268C115.02454,506.96954,115.0763,506.91504,115.126076,506.86395C116.29676,505.7019,116.93134,505.57117,122.741905,505.3459C125.462006,505.24445,127.9339,505.0923,128.21577,505.0185C128.5153,504.94415,129.6774,504.578,130.82126,504.17578C133.57475,503.22736,135.50294,502.77972,137.32903,502.72284C137.46301,502.71863,137.59647,502.71655,137.72966,502.71655C138.33379,502.71655,138.93248,502.7591,139.55241,502.83966C139.78761,502.86945,139.98268,502.88452,140.13835,502.88452C140.16153,502.88452,140.18382,502.88416,140.20526,502.88348C140.66818,502.86908,140.72441,502.6963,140.39485,502.33514C139.91173,501.81097,138.37038,501.43927,136.4434,501.35504C135.43575,501.31366,134.62189,501.21667,134.62125,501.16388C134.61664,500.7577,140.60625,497.63287,143.47412,496.5573C143.791,496.44788,143.79074,496.43,143.4687,496.08044C143.28975,495.88593,143.00998,495.78748,142.61867,495.78748C142.59361,495.78748,142.56808,495.7879,142.5421,495.7887C141.87888,495.8094,140.91577,496.09375,139.60573,496.65466C138.68639,497.0592,137.8654,497.36188,137.73384,497.36597C137.73215,497.36603,137.73056,497.3661,137.72911,497.3661C137.72682,497.3661,137.72481,497.36597,137.7231,497.36548C137.6345,497.33087,138.71895,496.36456,140.119,495.18274C141.51917,494.01807,142.65614,492.99805,142.65506,492.90955C142.65413,492.8247,142.30974,492.75964,141.87434,492.75964C141.8573,492.75964,141.8401,492.7597,141.82278,492.75995L141.82144,492.75995C141.8097,492.75995,141.7978,492.7603,141.78589,492.76068C140.72362,492.79376,139.03873,493.72845,137.24002,495.2859C136.56366,495.86,135.97969,496.29138,135.87013,496.2948C135.8697,496.2948,135.8693,496.29486,135.86888,496.29486C135.86287,496.29486,135.85841,496.2934,135.85553,496.29083C135.80194,496.23846,136.51753,495.453,137.44357,494.54126C139.28844,492.7247,139.49727,492.26843,138.46698,492.26825L138.4656,492.26825C138.45224,492.26825,138.43866,492.2683,138.42488,492.2685L138.42207,492.2685C138.39825,492.2685,138.37488,492.26923,138.35188,492.2699C137.60875,492.2931,137.24144,492.57593,134.4291,495.15845C131.80594,497.55676,129.87906,499.02722,128.42043,499.71545C127.66257,500.0653,126.85092,500.2556,126.03259,500.28113C125.96942,500.28308,125.906204,500.28406,125.84296,500.28406C125.07239,500.28406,124.29921,500.13782,123.562614,499.8416C122.56863,499.4463,122.497154,499.37622,122.54504,498.9168C122.64031,497.97925,123.23119,497.1059,124.66501,495.78247C125.45187,495.06714,126.20209,494.22784,126.35785,493.94342C126.6517,493.35645,126.69177,492.22516,126.43939,491.78687C126.37549,491.67755,126.32265,491.62073,126.24385,491.62073C126.24213,491.62073,126.2404,491.6208,126.23865,491.62085C126.140076,491.6239,126.000885,491.714,125.75171,491.90015C125.47153,492.1336,124.6496,492.8849,123.93307,493.58215C122.04601,495.44147,119.274864,497.25763,117.391304,497.87988C116.56394,498.15436,115.52683,498.6255,115.08863,498.9309C113.95188,499.69122,112.54478,501.35797,111.40157,503.23834L111.396355,503.23846C111.179924,503.0368,110.80645,502.69653,110.49987,502.41998C110.13799,502.10016,109.61874,501.62262,109.34173,501.3708C109.06136,501.11334,108.57235,500.6881,108.25408,500.4201C107.93087,500.15546,107.64721,499.91486,107.624596,499.89276C107.59341,499.8706,107.51531,499.81372,107.435936,499.76495C107.36135,499.71283,106.98986,499.42212,106.61776,499.10944C105.24427,497.97913,105.13505,497.8988,104.294716,497.42236C104.19405,497.36493,104.007195,497.3377,103.77778,497.3377C103.75939,497.3377,103.74073,497.3379,103.72181,497.3382C103.709175,497.33856,103.69636,497.33856,103.68351,497.339C103.325386,497.35016,102.88535,497.42157,102.507034,497.54633C101.42717,497.8969,100.866104,498.04242,100.15347,498.17474C99.4003,498.31317,98.87668,498.5221,98.37106,498.88202C98.008606,499.14886,97.871124,499.208,97.12549,499.43C97.02283,499.46448,96.854645,499.5221,96.74719,499.56C96.65698,499.59412,96.5654,499.6128,96.48154,499.61542L96.47211,499.61572C96.467865,499.61578,96.46365,499.61584,96.45946,499.61584C96.33009,499.61584,96.22215,499.57764,96.171844,499.5072C96.136444,499.45795,96.07153,499.27307,96.02734,499.0952C95.98294,498.91864,95.90753,498.71777,95.85803,498.64862C95.77307,498.5298,95.72653,498.10828,95.79187,498.0111C95.80463,497.98755,95.792694,497.92902,95.7608,497.88452C95.66684,497.74115,95.72244,497.4944,95.94635,497.0855C96.06738,496.86725,96.16504,496.60657,96.16034,496.50513C96.148026,496.30707,95.89209,495.75702,95.80963,495.75702L95.809326,495.75702L95.808105,495.75708C95.80542,495.75714,95.80286,495.75842,95.800385,495.76013C95.7959,495.7635,95.79071,495.7649,95.785065,495.76508L95.78453,495.76508C95.6994,495.76508,95.51166,495.42743,95.49826,495.2417C95.480896,494.94037,95.57721,494.3725,95.66098,494.29633C95.66263,494.29468,95.664246,494.29303,95.66574,494.2921C95.66754,494.2909,95.66922,494.29004,95.67099,494.2879C95.70987,494.25256,95.756775,494.11945,95.77417,493.99377C95.79321,493.85748,95.825745,493.74023,95.850464,493.71753C95.851074,493.7171,95.85181,493.71625,95.85254,493.71582C95.85498,493.7141,95.85721,493.71246,95.859436,493.71033C95.94946,493.62787,95.779144,493.31177,95.52579,493.11084C95.09778,492.7613,94.6647,492.36395,94.56549,492.22522C94.44162,492.0515,94.49707,491.83887,94.724945,491.63025C94.73804,491.6181,94.75177,491.60626,94.76593,491.59442C94.79047,491.57416,94.81854,491.54974,94.84906,491.52197C94.97217,491.40924,95.13406,491.24286,95.24463,491.11182C95.46338,490.86285,95.515686,490.73688,95.614746,490.23682L95.73694,489.65277L95.49008,489.34918C95.35608,489.18152,95.023865,488.8623,94.75891,488.6377C94.49414,488.41357,94.13626,488.08984,93.966644,487.9245C93.7984,487.7517,93.53995,487.51477,93.39859,487.39038C92.21704,486.3565,90.96359,485.03668,91.060486,484.92603L91.06323,484.92346L91.06366,484.92346C91.06488,484.9226,91.06604,484.9214,91.06708,484.9201C91.091675,484.89783,91.06943,484.84894,91.0177,484.80627C90.96005,484.75726,90.92471,484.65472,90.93582,484.56543C90.94531,484.48425,90.920654,484.39728,90.87076,484.3805C90.84189,484.36798,90.829315,484.35785,90.83469,484.34955L90.837555,484.34705C90.84479,484.3423,90.86075,484.33978,90.88663,484.339C90.90671,484.33716,90.91974,484.33392,90.92572,484.32843C90.93878,484.31586,90.920044,484.2953,90.87036,484.25336C90.80948,484.21295,90.79611,484.17725,90.82443,484.15198C90.82892,484.14734,90.834595,484.1435,90.841675,484.13965C90.84213,484.13922,90.84271,484.13843,90.84332,484.13837C90.87891,484.1056,90.94998,483.8128,90.99167,483.46857C91.07025,482.9074,91.032776,482.56116,90.878174,482.33392C90.85681,482.30414,90.83505,482.20038,90.813416,482.09583C90.801704,481.99493,90.77256,481.94427,90.748375,481.94427L90.74814,481.94427C90.74402,481.9444,90.74005,481.94574,90.73663,481.94867L90.73361,481.9516C90.71777,481.96796,90.707275,482.01465,90.71304,482.09125C90.71774,482.1488,90.72034,482.17877,90.71408,482.18506C90.71335,482.1855,90.712585,482.18555,90.71152,482.18555L90.71137,482.18555C90.70319,482.18555,90.68603,482.16498,90.65445,482.12476C90.61536,482.0699,90.57742,481.8805,90.57016,481.69135C90.55524,481.4192,90.48111,481.20978,90.15677,480.5348C89.93927,480.0824,89.73218,479.6975,89.699524,479.6831C89.661804,479.6725,89.661835,479.62012,89.697754,479.56573C89.7514,479.48322,89.699585,479.40033,89.08413,478.59943C88.70919,478.11542,87.83636,476.96497,87.13683,476.03552C85.84896,474.3235,85.39559,473.78217,84.82729,473.268C84.65084,473.115,84.30239,472.78375,84.05343,472.53955C83.65569,472.16028,83.46282,472.02606,82.579094,471.5534C81.49192,470.97144,81.12208,470.81006,80.87517,470.81006L80.87342,470.81006C80.78156,470.80768,80.52921,470.73712,80.30549,470.6551C80.091095,470.57373,79.935104,470.53046,79.790085,470.53046C79.7852,470.53046,79.78032,470.53052,79.77546,470.53058L79.766884,470.53088C79.5882,470.53644,79.422585,470.60785,79.17838,470.75397C78.98783,470.86475,78.73234,470.9682,78.615364,470.98242C78.60142,470.98407,78.58668,470.98578,78.57142,470.98627L78.56614,470.9864C78.56346,470.98645,78.56077,470.9865,78.55806,470.9865C78.31427,470.9865,77.91904,470.77814,77.55076,470.45605C77.4163,470.34082,77.17625,470.1723,77.0153,470.08307C76.72587,469.91937,75.7795,469.13855,75.65145,468.9593C75.590996,468.8742,74.95849,468.3966,74.43325,468.0387C74.30297,467.9505,74.10894,467.84686,74.0042,467.81512C72.71162,467.4052,72.13153,467.2583,71.643036,467.2583C71.6276,467.2583,71.61226,467.25842,71.596985,467.25873C71.587494,467.25903,71.57803,467.25885,71.56854,467.25916C71.447266,467.26294,71.32971,467.27557,71.206055,467.2953C71.16406,467.30145,71.12033,467.30524,71.075165,467.30664L71.06009,467.30713C71.05186,467.30725,71.04359,467.30737,71.03526,467.30737C70.87221,467.30737,70.69124,467.2768,70.50195,467.21155C70.34364,467.16022,70.20545,467.13226,70.1183,467.13226C70.115456,467.13226,70.11266,467.13226,70.109924,467.13232L70.10419,467.1325C70.069885,467.1336,70.04495,467.13965,70.03174,467.15143C69.99039,467.18768,69.911865,467.23523,69.8577,467.24298C69.33008,467.3781,67.823395,468.4295,66.82086,469.349C66.7283,469.4336,66.6402,469.51758,66.557495,469.59857C66.46039,469.69342,66.37335,469.7766,66.291626,469.8515C65.98248,470.135,65.74921,470.30682,65.334564,470.57245C64.916565,470.83868,64.71384,470.95715,64.55887,470.96198L64.554504,470.9621C64.55239,470.96216,64.550285,470.96216,64.54819,470.96216C64.4374,470.96216,64.349625,470.90222,64.22119,470.79694C64.11267,470.7085,63.87912,470.52765,63.711304,470.39838C63.503967,470.2439,63.295837,470.01593,63.082184,469.7166C62.909058,469.46356,62.68451,469.20197,62.59195,469.12402C61.935944,468.5727,61.502876,468.23956,61.311836,468.11877C61.016518,467.937,60.235176,467.68262,59.6941,467.59625C59.454323,467.55493,59.119003,467.45245,58.952927,467.36694C58.72197,467.24493,58.57023,467.19147,58.367615,467.19147C58.360657,467.19147,58.35363,467.19153,58.346542,467.19165L58.33217,467.19208C58.226974,467.19537,58.1071,467.2121,57.955704,467.24042C57.867813,467.25574,57.781723,467.2649,57.713272,467.26703L57.699783,467.26746C57.69509,467.26752,57.69049,467.26752,57.68599,467.26752C57.62397,467.26752,57.58074,467.26123,57.570755,467.2475C57.556534,467.22687,57.445457,467.2126,57.30138,467.2126C57.287434,467.2126,57.273182,467.2127,57.25868,467.21295L57.257328,467.21295C57.24449,467.21295,57.23151,467.21338,57.218304,467.2138C57.208355,467.2141,57.198315,467.21442,57.188244,467.21515C57.16609,467.2166,57.143536,467.21735,57.121075,467.21802C57.109013,467.21826,57.09691,467.21838,57.084797,467.21838C56.926952,467.21838,56.768574,467.19897,56.697887,467.16907C56.611675,467.13153,56.35963,466.87402,56.092236,466.552C55.737774,466.1189,55.55485,465.94702,55.280132,465.77277C54.63525,465.3731,54.171654,465.19293,53.73492,465.19293 Z M339.65894,410.26837C339.38727,410.26837,339.14313,410.28217,338.9514,410.31158C338.5263,410.386,337.80942,410.66034,337.7259,410.7854C337.70273,410.8238,338.15863,410.85583,338.75595,410.86084C338.80338,410.86127,338.85175,410.8615,338.90082,410.8615L338.9226,410.8617C340.06052,410.87134,340.1723,410.8813,340.93378,411.13885C341.68347,411.38947,341.91666,411.52307,341.80823,411.62292C341.80338,411.62787,341.78357,411.63013,341.75122,411.6302L341.74527,411.63007C341.60583,411.6289,341.25583,411.58875,340.85837,411.5221C340.30713,411.42914,339.49277,411.38202,338.58517,411.37427C338.50467,411.3736,338.42337,411.37323,338.34152,411.37323L338.31732,411.37323C336.49622,411.37323,334.3771,411.5246,333.25815,411.7802C332.95816,411.84668,332.08282,412.11237,331.30762,412.36157C330.1572,412.7434,329.79037,412.9015,329.19827,413.29242L328.48114,413.76672L328.9061,413.79218C328.93207,413.79364,328.95828,413.79443,328.98468,413.79468L328.99942,413.79468C329.28177,413.79468,329.5945,413.72455,330.08966,413.56018C330.62613,413.3739,331.50687,413.22296,331.8808,413.22296L331.89203,413.22296C332.02765,413.224,332.0916,413.24634,332.0399,413.29565C331.9982,413.33716,331.58133,413.51184,331.12283,413.68628C329.85565,414.16827,328.71332,414.84198,327.81247,415.63263C327.34534,416.04877,326.18555,417.40582,326.05188,417.69745C326.00177,417.8139,325.8099,417.98035,325.62646,418.07184C324.34244,418.7121,322.85736,420.302,322.53128,421.3601C322.48355,421.52618,322.50372,421.5495,322.76303,421.55182C322.77667,421.55188,322.791,421.55206,322.80606,421.55206L323.1227,421.5523L322.52133,422.7517C321.79477,424.20917,321.53568,424.93402,321.55167,425.55054C321.56372,426.10272,321.7546,426.66473,321.8784,426.66565L321.87885,426.66565C321.9174,426.66565,321.94937,426.6109,321.96732,426.48425C321.98407,426.3844,322.05084,426.3012,322.11755,426.30115L322.11783,426.30115C322.21753,426.30194,322.2337,426.66986,322.22327,428.65112C322.2218,429.95105,322.187,431.28424,322.1533,431.60925C322.09583,432.18567,322.1023,432.21625,322.27234,432.21777L322.28696,432.21777C322.43622,432.21777,322.47778,432.15894,322.52808,431.84302C322.5533,431.63458,322.61182,431.44305,322.6535,431.4181C322.67627,431.40448,322.69647,431.39832,322.71024,431.39832L322.7109,431.39832C322.72192,431.39838,322.7285,431.4026,322.72852,431.4099C322.7285,431.42657,322.76993,431.65997,322.81958,431.93494C322.8693,432.20166,322.96027,432.87677,323.0096,433.42688L323.10852,434.42694L323.21738,433.95203C323.27603,433.6938,323.3182,433.2188,323.31854,432.91064C323.31924,432.24457,323.36105,432.0525,323.52728,432.0525L323.5279,432.0525C323.6195,432.0525,323.64468,431.86908,323.6455,431.0609C323.6462,430.48596,323.68,430.0445,323.7301,430.01123C323.7388,430.00684,323.74704,430.00482,323.7547,430.00482L323.75507,430.00482C323.7909,430.00507,323.8134,430.0509,323.81323,430.1195C323.8132,430.211,323.92932,430.66968,324.07047,431.14484C324.58527,432.862,324.87448,435.06213,324.72345,436.02032C324.59756,436.80353,324.21326,437.7365,323.70404,438.50256C322.69406,440.00946,322.71075,439.98468,322.76047,440.31805C322.78525,440.49316,322.85165,440.72656,322.90155,440.85156C323.02618,441.1267,323.83405,441.5359,324.44232,441.63678C325.3671,441.78772,325.52515,442.0879,325.17413,442.9792C325.0237,443.37885,324.96512,443.62878,325.0066,443.79553C325.06464,444.07062,325.40585,444.4544,325.6891,444.56293C325.8557,444.62146,325.86392,444.6629,325.79712,444.84656C325.68005,445.14624,325.6875,445.99622,325.8122,446.26312C325.87872,446.4048,326.01193,446.50488,326.24518,446.5719C326.77835,446.72247,326.84488,446.8308,326.94388,447.78094C327.09222,449.2561,327.62463,450.08984,328.59924,450.391C328.83252,450.46326,329.0441,450.50586,329.27417,450.5077C329.2797,450.50787,329.28528,450.5078,329.2908,450.50787C329.93665,450.5078,330.73395,450.1883,332.55872,449.312C334.65863,448.30725,336.27582,447.7556,337.09586,447.7556L337.11243,447.7556C337.17484,447.7561,337.23254,447.76,337.28537,447.76727C338.25183,447.90167,339.22604,448.59436,341.0074,450.42975C342.1644,451.61426,344.27808,454.2583,344.66058,454.98358L344.79364,455.2422L344.25204,455.24158L343.71036,455.2409L343.13406,456.42334C342.46597,457.81445,341.64767,459.2635,341.18033,459.8963C340.6379,460.61255,340.1368,461.63715,339.90253,462.4867C339.49258,463.9696,339.075,464.81073,338.10693,466.10962C336.8801,467.74988,335.97015,469.24896,334.91788,471.3559C333.3311,474.51245,332.23782,476.0111,328.72534,479.80737C328.14026,480.43988,327.58768,481.00415,327.06653,481.50134C326.1691,480.95868,325.25674,480.10272,324.77676,479.29083C324.36514,478.5689,323.36777,473.9331,323.27325,472.2011C323.19904,470.84045,322.82968,470.43866,321.2948,470.0509C320.4387,469.8247,318.9438,469.26086,318.68555,469.07654C318.678,469.06976,318.68045,469.0464,318.69183,469.00842L318.68817,469.00842L323.38242,462.25342L322.59982,461.70514L322.59378,461.70093L318.37393,467.77576L316.2706,467.4062L315.30154,468.05414L314.86844,468.26605Q313.9484,468.5667,313.49686,468.81482L312.09692,469.59802L312.10052,469.59802C312.2044,469.6593,312.30374,469.71838,312.3981,469.77496L312.39636,469.77496Q311.86838,470.5987,311.65613,471.0995Q311.51303,471.41974,311.43243,471.70233L307.8586,466.055L307.82263,465.99817L295.575,474.91388L300.60062,481.91064L300.59714,481.91064Q300.67303,482.33887,300.82617,482.85944Q301.80606,485.77863,303.15536,487.2307Q303.62283,487.68127,304.12762,487.7976Q304.10522,487.84033,304.8977,487.88818L304.8942,487.88818L310.6674,495.92572C310.27872,495.91815,309.97073,495.91052,309.7831,495.90308C309.36142,495.8916,308.5546,495.87976,307.701,495.87256C307.25568,495.86877,306.79764,495.8664,306.37485,495.86597L304.13327,495.86377L304.13358,495.80237L302.46716,495.7448L302.46664,495.84515L300.1251,495.80914C289.87247,495.64563,284.52084,495.51923,283.21188,495.4068L283.2104,495.40686L277.7094,481.0758L277.70798,481.0758C277.72604,481.0669,277.74414,481.05798,277.76233,481.04907L277.76556,481.04907L275.3153,474.61456L275.31207,474.61456C275.28693,474.62122,275.26187,474.62787,275.23685,474.6344L272.4593,467.39832L271.32953,464.83502L268.51245,464.4344L268.51114,464.4344C267.53186,464.22742,266.37546,464.06244,265.52173,464.00885L265.52048,464.00885L265.48117,464.0031L265.46182,464.0005L265.46417,464.0053C265.31445,463.9967,265.17468,463.9917,265.04758,463.9906C265.03067,463.99048,265.01398,463.99036,264.99747,463.99036C264.6915,463.99036,264.46545,464.01508,264.36047,464.0705C264.2104,464.15356,264.21036,464.1786,264.3349,464.59546C264.7251,465.93744,267.01843,471.9649,267.94943,474.11603C268.27362,474.84955,268.68906,475.93335,268.88843,476.53357C269.22897,477.56738,269.7524,478.9594,272.11237,485.03687C272.67743,486.5042,273.65793,489.04694,274.28116,490.6892C274.91266,492.33154,275.70212,494.35736,276.04282,495.19128C276.7659,496.94183,277.2395,498.20898,277.23932,498.36737C277.23917,498.54242,277.01413,498.56708,274.8224,498.6563C271.7022,498.778,269.64835,498.81396,261.3307,498.81396L261.30252,498.81396C259.6521,498.81396,257.75552,498.81256,255.55594,498.81036L242.32285,498.79584L242.25586,559.8778L242.18893,620.9599L245.63052,620.96375L249.08047,620.9675L249.17007,584.81854C249.22519,564.9438,249.3038,538.87756,249.35019,526.90295L249.4241,505.13678L255.55728,505.16028L261.69046,505.19196L261.7,511.6917C261.74405,539.90814,261.88397,579.5407,262.0056,597.81555C262.0613,607.79047,262.15646,612.21545,262.28967,612.3572C262.3377,612.40533,262.60077,612.4301,263.0242,612.4337C263.06015,612.4341,263.0973,612.4342,263.1355,612.4342C264.20786,612.4342,266.1635,612.3149,268.26483,612.10535L268.69818,612.0642L268.75687,558.5152L268.81558,504.96637L271.7988,505.0279C273.43204,505.063,278.11526,505.12653,282.1901,505.17267C286.27332,505.22705,290.6232,505.28186,291.85648,505.30817C294.7448,505.36047,298.71863,505.40625,303.04626,505.4428C309.79984,505.49963,317.41486,505.53363,323.1102,505.53363L323.15735,505.53363C328.01236,505.53363,331.46158,505.50873,331.77222,505.45203C331.9139,505.42712,332.45563,505.38623,332.98062,505.35345C333.50565,505.32886,334.08902,505.2964,334.27237,505.27142C334.45575,505.255,334.84744,505.22217,335.14743,505.18903C336.27252,505.08197,339.0564,504.58514,341.2152,504.09558C341.4569,504.03748,341.53207,503.89587,341.6411,503.2793C341.76688,502.563,342.0376,498.8382,341.971,498.77966C341.92938,498.73816,339.17957,498.65192,336.52963,498.6073C332.11313,498.5274,330.99658,498.42627,330.87195,498.10114C330.81384,497.9344,331.29752,497.39355,331.50595,497.3935L331.5066,497.3935C332.03192,497.3935,333.47427,496.32007,334.83365,494.93048C335.03824,494.7196,335.2252,494.52026,335.3961,494.3294L335.3981,494.3294C335.64178,494.42365,335.92688,494.54553,336.21213,494.6817L336.21414,494.68158L337.8373,495.33008L342.83105,495.07312L342.8331,495.07312C343.15482,495.30756,343.4324,495.5484,343.61597,495.75665C344.09036,496.3155,344.60568,497.48273,345.11218,499.15845C346.28293,503.04285,347.10532,505.37726,348.39352,508.54523C348.85898,509.67072,349.4573,511.16302,349.73157,511.86346C350.52103,513.8308,350.8537,514.4395,352.2599,516.35767C352.55945,516.7663,352.83392,517.2333,352.88376,517.4C352.92523,517.56665,353.0915,517.9169,353.24954,518.16693C353.91504,519.22595,354.1396,519.66785,354.38043,520.4183C354.68774,521.3519,354.8031,522.5018,354.6277,522.9185C354.41043,523.4349,353.60184,523.7341,351.1513,524.2062C347.50897,524.9023,346.92548,525.0265,345.4585,525.36646C344.60825,525.5654,343.37466,525.8308,342.7079,525.9469C339.9074,526.4355,337.6736,526.84143,336.5067,527.0733C333.7062,527.6286,330.89734,528.109,325.41324,528.96954C319.99573,529.8219,318.82053,530.0288,316.95343,530.4769C313.1608,531.38116,310.79294,532.5118,308.26572,534.609C306.5141,536.0737,305.87958,537.17303,305.68588,539.0811C305.41632,541.72235,306.31308,544.69836,308.4424,548.20044C309.4157,549.81824,309.51517,550.30176,309.16342,551.89307C309.0127,552.55945,308.97052,553.00934,308.96945,553.99274C308.96814,555.1928,308.97635,555.2761,309.24222,556.0346C309.8237,557.7187,310.66397,558.9444,312.50357,560.7966C313.8604,562.1564,314.9677,563.1076,315.97534,563.7671C317.18268,564.55994,317.74014,565.3857,319.68585,569.2544C320.71692,571.3137,321.507,572.78955,321.8231,573.25653C322.29727,573.957,322.8793,575.21606,324.1924,578.42584C324.9736,580.34326,325.73004,582.069,326.91885,584.6788C327.16815,585.22906,327.61697,586.3293,327.92444,587.12134C328.89236,589.6695,329.19675,590.1472,330.02957,590.15424C330.03583,590.15424,330.0422,590.15424,330.0485,590.15436C330.1036,590.15436,330.161,590.1524,330.22113,590.14874C330.3378,590.1405,331.02972,589.9248,331.76324,589.68384C332.49686,589.4346,333.33044,589.2022,333.61374,589.17773C333.71213,589.16736,333.80643,589.162,333.89706,589.162C333.9036,589.162,333.9101,589.162,333.9165,589.1622C334.75925,589.1692,335.28668,589.6432,335.85358,590.855C336.85956,592.98114,336.93222,595.10626,336.0474,596.4802C335.57153,597.2211,334.8793,597.7622,333.50363,598.4522C331.95276,599.2338,330.91882,599.81604,329.41782,600.7561C328.78403,601.15533,328.0669,601.5794,327.83344,601.6956C327.6083,601.8121,327.00787,602.1866,326.50754,602.536C325.1816,603.443,323.91437,604.00824,320.49643,605.21295C315.66132,606.9158,314.8108,607.38165,314.45966,608.4729C314.3677,608.7394,314.37592,608.8311,314.5172,609.148C314.78317,609.74817,315.8075,610.43274,317.10693,610.87573C317.63174,611.0512,319.13977,611.3278,320.11462,611.4207C320.4146,611.4461,320.78955,611.48804,320.94785,611.50494C321.1062,611.5218,321.55612,611.564,321.94772,611.5894C323.81995,611.71533,325.6219,611.78564,327.31744,611.8C327.53387,611.8018,327.74857,611.8024,327.96155,611.8024L327.9639,611.8024C330.45438,611.8024,332.6973,611.6775,334.5726,611.42786C335.27963,611.33344,336.7448,611.2847,338.21432,611.2847C338.3989,611.2847,338.5835,611.2855,338.7667,611.287C339.92776,611.29694,341.03143,611.33765,341.69757,611.4109L342.7307,611.5286L342.83847,612.0705C342.88812,612.37036,343.03738,613.0871,343.1617,613.6707L343.38553,614.7375L343.85217,614.7381C344.11053,614.74677,344.71045,614.76404,345.19376,614.78955C346.43137,614.8538,348.46466,614.9141,349.4191,614.92224C349.48938,614.9228,349.55383,614.92316,349.61166,614.92316C349.81018,614.92316,349.9309,614.9197,349.94363,614.9117C350.0103,614.8617,350.1474,611.4204,350.3722,604.01227C350.42383,602.49567,350.4933,600.0207,350.5449,598.51263C350.58826,597.01294,350.66623,594.28796,350.71823,592.45465C350.91803,585.0133,351.01245,582.52185,351.1042,582.43024C351.10934,582.42505,351.1168,582.42224,351.1276,582.42224L351.12814,582.42224C351.24033,582.42316,351.70355,582.7307,353.5608,583.99945C355.88742,585.5904,356.69672,586.0842,356.96503,586.0864L356.96683,586.08655L356.9669,586.08655C357.167,586.08655,357.67593,585.5951,359.0856,584.064C359.9613,583.1068,360.5117,582.6743,360.8367,582.6743L360.83862,582.6743C360.9488,582.6752,361.3052,582.767,361.6451,582.88354C364.70224,583.92847,371.94598,589.57794,374.47562,592.89734C374.9166,593.48126,375.0913,593.7896,375.30725,594.4232C375.52316,595.0569,375.91412,595.7321,376.73782,596.8995C377.54492,598.03375,378.22675,599.3512,378.667,600.6183C379.33994,602.55237,379.82065,604.91113,379.92697,606.7779C379.98404,607.8695,379.892,608.2444,379.157,609.7352C378.43042,611.2178,378.2632,611.7509,378.2456,612.56775C378.23642,613.3344,378.36935,613.6845,378.8522,614.15155C379.22675,614.52686,379.78476,614.7942,380.69284,615.0368C381.20612,615.17816,381.4939,615.2241,382.2824,615.2308C382.35406,615.23145,382.42984,615.23175,382.51025,615.23175C382.59357,615.23157,382.68195,615.2313,382.7759,615.23083C382.80475,615.23083,382.83298,615.23083,382.86075,615.2308C384.02008,615.2308,384.2512,615.20276,384.95947,615.0082C386.77667,614.5102,388.42746,613.71204,389.2283,612.96295C389.95404,612.2637,390.2297,611.7225,390.481,610.5144C390.86636,608.63153,390.63086,603.0145,390.05035,600.4143C389.85968,599.5306,389.73593,598.4139,389.67087,596.91394C389.56534,594.3637,389.47043,589.78046,389.47348,586.9971C389.47525,585.3472,389.43625,582.96387,389.39587,581.70557C389.25858,577.7803,389.18384,577.4719,388.2926,577.13763C387.46796,576.82825,386.36807,576.68536,384.3432,576.64154C384.03683,576.63385,383.75177,576.62836,383.48502,576.6262C383.38583,576.6253,383.28918,576.625,383.1949,576.625C381.5776,576.625,380.65967,576.7501,379.65112,577.0782C379.16766,577.22754,378.6259,577.37714,378.43414,577.41003C378.35562,577.42224,378.26724,577.4282,378.16803,577.4282L378.1472,577.4282C377.63458,577.42395,376.83945,577.2594,375.63477,576.90735C372.3442,575.9452,369.87024,575.0507,368.07953,574.1656C366.8386,573.5558,366.49722,573.2888,365.66504,572.2713C364.9993,571.4539,362.92587,570.0599,357.1215,566.5287C353.12427,564.09106,352.2332,563.5483,351.15063,562.85565L350.16794,562.23773L350.17548,555.41284L350.1829,548.5965L350.83304,548.50555C354.49185,547.9762,357.04208,547.7624,361.26712,547.6338C362.70044,547.5852,362.85043,547.58527,366.4339,547.3891C367.65063,547.3239,369.03403,547.2503,369.51736,547.22595C370.00076,547.20135,370.9008,547.1442,371.51752,547.1032C372.13425,547.06213,373.09262,547.00494,373.6426,546.9804C374.82596,546.92346,378.02612,546.7268,380.93463,546.5303C381.6013,546.48083,383.0431,546.3908,384.14316,546.3254C386.75998,546.1699,387.45166,546.1209,388.06,546.0797C388.33505,546.0552,389.65176,545.9814,390.97675,545.91626C392.31018,545.85095,393.54352,545.7773,393.72687,545.7525C394.4282,545.66925,397.34094,545.6017,399.37384,545.6016C399.593,545.6016,399.8019,545.6024,399.9967,545.6041C400.50742,545.6084,400.9213,545.6185,401.16855,545.63586C403.36005,545.78796,404.05136,546.0723,405.16675,547.2651C406.5068,548.7083,406.57318,548.92505,407.08487,553.47546C407.29935,555.42554,407.59634,558.2092,407.7116,559.4342C407.73636,559.65936,407.80228,560.3595,407.86835,560.97614C407.93433,561.59265,408.00845,562.35944,408.0414,562.68463C408.06607,563.0013,408.14026,563.79297,408.20618,564.4349C408.2638,565.0765,408.34628,565.885,408.3709,566.22675C408.39545,566.5683,408.45325,567.13495,408.49454,567.4767C408.53577,567.8183,408.59348,568.4186,408.61804,568.8101C408.64267,569.2018,408.6838,569.6101,408.7004,569.7269C408.72525,569.8435,408.7994,570.6103,408.86517,571.4353C409.02963,573.4438,409.0625,573.7939,409.15317,574.769C409.19437,575.22736,409.25192,575.919,409.2765,576.3108C409.33395,577.0857,409.34222,577.1608,409.5234,579.10254C409.72113,581.1529,409.79526,581.92786,409.93576,583.0613C410.22473,585.49475,410.48007,588.2367,410.59454,590.1869C410.6191,590.5951,410.66025,591.12024,410.6766,591.3536C410.7014,591.57855,410.79153,592.9871,410.8815,594.4789C410.97156,595.9705,411.078,597.72894,411.12723,598.3956C411.16815,599.0625,411.29913,601.1957,411.4136,603.1458C411.8062,609.95435,411.9866,612.6465,412.11072,613.4381C412.16037,613.75476,412.22656,614.1799,412.25134,614.38C412.30923,614.7884,412.28424,614.7799,413.40076,614.88947C413.79547,614.9262,415.64835,614.9586,417.45758,614.9739C418.15906,614.9798,418.85397,614.98315,419.45483,614.9833C420.5104,614.9833,421.27554,614.97284,421.27554,614.9482C421.2756,614.9233,421.18454,614.34796,421.06863,613.673C420.82846,612.2646,420.57236,610.35583,420.16766,606.98883C419.77124,603.7301,419.3579,600.6461,418.87,597.23755C418.27454,593.09515,417.299,586.0441,416.85266,582.6937C416.73697,581.8187,416.58813,580.71826,416.522,580.23505C416.45587,579.7515,416.27408,578.3096,416.10886,577.0261C415.7041,573.71765,415.38184,571.27563,414.78668,566.8999C414.67917,566.0999,414.5139,564.8582,414.41467,564.1496C414.3154,563.4414,413.9682,560.90753,413.62918,558.5239C413.2902,556.1405,412.8851,553.1734,412.7198,551.94006C412.40576,549.5229,412.4058,549.4732,412.26563,548.1478C412.21616,547.6647,412.15836,547.15594,412.14185,547.0228C412.0674,546.53094,411.97775,544.6727,411.97873,543.8144C411.9795,543.08936,412.01306,542.86444,412.17178,542.506C412.5394,541.66486,412.37314,541.2897,411.43198,540.80536C411.17383,540.67993,410.85742,540.44653,410.73257,540.2963C410.22488,539.7042,409.63486,538.21185,407.44168,532.0595C405.50598,526.6492,405.24844,525.9405,404.52548,524.0566C403.83585,522.26404,403.3539,520.95526,402.21576,517.7374C401.55115,515.86975,401.53455,515.78656,401.6847,515.68665C402.41028,515.1709,403.0192,514.63824,403.08606,514.4466C403.21146,514.11346,403.04584,513.1799,402.55612,511.38782C401.91705,509.03717,401.66895,507.3119,401.47284,503.77014C401.36646,501.91162,401.42148,497.35345,401.5727,496.22028C401.72406,494.97876,402.08444,493.1375,402.46106,491.63806C403.07214,489.1969,403.66556,487.5393,405.07724,484.39087C405.31122,483.86627,405.49512,483.3415,405.48688,483.22473C405.46768,483.06952,405.4533,483.02972,405.15445,483.02716C405.14404,483.0271,405.13333,483.02704,405.1222,483.02704L405.118,483.02704C405.0384,483.02704,404.9407,483.0293,404.82043,483.03235C403.42877,483.0642,399.89444,484.03534,398.4687,484.78387C397.73492,485.16632,397.3761,485.6159,396.74133,486.92352C396.23184,487.9897,395.9393,488.81427,395.67145,489.96387C395.47873,490.83044,395.18503,492.69678,395.11746,493.5467C395.09204,493.88818,395.04987,494.35486,395.02463,494.588C394.9573,495.188,394.95224,499.8463,395.01776,500.83807C395.14063,502.82153,395.38794,505.24677,395.64435,507.00537C396.11575,510.23083,397.4088,516.60706,398.63644,521.78345C400.07974,527.87634,400.88486,530.7608,401.8652,533.42834C402.20593,534.36206,401.97107,535.7617,401.37878,536.3279C401.0535,536.6441,399.88605,537.2844,399.40265,537.42554C398.98584,537.5419,397.0605,537.8315,396.02713,537.92206C395.72708,537.955,395.1687,538.0043,394.77704,538.0455C394.38525,538.08655,393.6352,538.1442,393.1102,538.1769C392.5852,538.2097,392.06012,538.2426,391.94345,538.2507C391.72427,538.27875,390.87503,538.30023,390.02722,538.30023C389.9018,538.30023,389.77643,538.29974,389.65317,538.2987C389.62762,538.2984,389.60217,538.2983,389.5768,538.298L388.8435,538.28906L388.89386,538.02234C388.9273,537.8725,389.22787,537.3396,389.56183,536.83154C390.27957,535.774,390.56357,535.22424,390.97305,534.1164C391.87564,531.71735,392.36246,528.5097,392.2573,525.66797C392.2089,524.20966,392.1263,523.5679,391.74472,521.89246C391.46286,520.6173,391.44693,519.9505,391.69742,519.48413C391.80597,519.2759,391.8813,518.9844,391.88147,518.76764C391.88214,518.1843,391.5003,516.8253,391.1261,516.09174C390.45264,514.75775,388.73862,512.3477,386.89944,510.16235C384.669,507.5017,383.10425,505.81653,379.10037,501.7788L375.67093,498.31696L375.63,497.60864C375.44952,495.00818,375.22678,492.9497,374.87094,490.69946C374.7551,489.98254,374.6227,489.11572,374.57306,488.7741C374.30008,486.9154,373.57742,484.77313,372.5713,482.77185C371.8812,481.41296,371.64847,480.81256,371.51602,480.03772C371.38348,479.32062,371.19415,477.1955,371.1371,475.97888C371.1127,475.37878,371.07187,474.68713,371.05545,474.437C371.03073,474.18695,370.99817,473.48706,370.9738,472.89545C370.9411,472.2953,370.9085,471.64545,370.89206,471.43707C370.86728,471.2287,370.81818,470.44525,370.76904,469.6869C370.71985,468.92853,370.62106,467.7702,370.53848,467.10352C370.34863,465.4615,370.37424,464.94495,370.71753,463.43707C371.13617,461.62085,371.19492,461.26263,371.1959,460.35413C371.1975,458.8626,370.71567,457.5788,369.35956,455.51904C367.60422,452.83374,365.70792,449.5066,365.70834,449.10657C365.70853,448.87335,365.35114,448.0396,364.42,446.097C363.8546,444.92975,363.36407,443.86267,363.3393,443.73767C363.27225,443.46838,363.17822,443.4071,362.666,443.40277C362.64554,443.40253,362.6244,443.40253,362.6025,443.40253L362.5917,443.40253C362.55423,443.40253,362.5147,443.40283,362.473,443.4032C362.01465,443.4112,361.36447,443.5854,358.5552,444.45746C356.7048,445.03027,355.1461,445.50342,355.0958,445.50342L355.0957,445.50342C355.01196,445.5027,354.12207,444.36072,354.06396,444.169C354.0476,444.13086,354.08142,444.1106,354.1513,444.11047L354.15347,444.11047C354.18982,444.11084,354.2356,444.11646,354.28903,444.12762C354.3433,444.1372,354.3939,444.14197,354.43573,444.14233L354.4402,444.14233C354.5049,444.14215,354.54736,444.1314,354.5474,444.1114C354.54742,444.06946,354.46454,443.6529,354.37338,443.16937C354.133,441.99414,354.143,440.47754,354.38605,439.2196C354.5704,438.27814,355.07217,436.67865,355.8076,434.72955C356.65173,432.44714,357.09546,430.60602,357.22244,428.81445C357.31537,427.6314,357.22543,426.07294,357.0347,425.23932C356.87708,424.57263,356.33713,423.00543,355.95477,422.10498C355.78854,421.7215,355.65555,421.3963,355.65555,421.37976C355.65555,421.36285,355.75568,421.32977,355.88895,421.31342C356.01318,421.29175,356.05695,421.28424,356.01108,421.28375L356.0051,421.2837C355.97845,421.28375,355.92905,421.28564,355.85568,421.28815C355.83524,421.28955,355.81607,421.2904,355.7979,421.2904L355.7932,421.2904C355.60034,421.28876,355.51825,421.1856,355.1481,420.58746C354.6407,419.7619,353.61722,418.40265,353.25095,418.0522C353.10938,417.91028,352.99295,417.76843,352.99298,417.72675C352.99304,417.70074,353.13867,417.68018,353.34412,417.68018L353.3522,417.68018C353.35867,417.68018,353.3652,417.68018,353.37183,417.68024C353.4232,417.6808,353.47787,417.68256,353.53467,417.6858C353.62796,417.69104,353.7157,417.69385,353.79218,417.69452C353.80066,417.69458,353.809,417.69458,353.81717,417.69458L353.82928,417.69458C353.9782,417.69458,354.07632,417.68567,354.07632,417.66962C354.07642,417.58643,352.7112,416.2599,352.46146,416.08453C352.3452,416.01605,352.229,415.96997,352.16803,415.96954L352.16705,415.96948C352.15417,415.96948,352.14383,415.97156,352.13654,415.9759C352.12112,415.9837,352.10965,415.9873,352.10214,415.98743L352.1019,415.98743C352.08542,415.98712,352.08868,415.96857,352.1116,415.93414C352.17004,415.8343,351.354,415.31677,350.8209,415.11633C350.621,415.0409,350.12946,414.94873,349.72116,414.90674C349.32123,414.87292,348.91296,414.78906,348.8047,414.73907C348.70477,414.68054,348.2885,414.31348,347.8723,413.91302C346.9816,413.0536,346.48196,412.67798,345.38278,412.0019C344.35013,411.3758,342.9924,410.79102,341.9344,410.5232C341.31366,410.37018,340.43768,410.27472,339.7288,410.26874C339.70532,410.26843,339.68204,410.26837,339.65894,410.26837 Z"/> </g> </g> </svg>