<svg width="238" height="333" viewBox="0 0 238 333" fill="none" xmlns="http://www.w3.org/2000/svg">
<rect x="85" y="134" width="68.2139" height="128.131" rx="13.7769" fill="#FFE9E0" stroke="#323232" stroke-width="4" stroke-linecap="round"/>
<path d="M86.896 216.634V175.678H155.5C150.333 196.68 119.523 217.768 86.896 216.634Z" fill="#F8CBB9"/>
<path d="M79 130.297C79 141.986 68.4499 151.797 55 151.797C41.5501 151.797 31 141.986 31 130.297C31 118.609 41.5501 108.797 55 108.797C68.4499 108.797 79 118.609 79 130.297Z" fill="#FFE9E0" stroke="#323232" stroke-width="4"/>
<path d="M162 130.297C162 141.986 172.55 151.797 186 151.797C199.45 151.797 210 141.986 210 130.297C210 118.609 199.45 108.797 186 108.797C172.55 108.797 162 118.609 162 130.297Z" fill="#FFE9E0" stroke="#323232" stroke-width="4"/>
<g clip-path="url(#clip0_302_1668)">
<path d="M187 126.129C187 146.469 181.073 161.968 170.053 172.397C159.016 182.842 142.583 188.475 121.03 188.475C99.4768 188.475 82.7676 182.842 71.4607 172.382C60.1775 161.943 54 146.445 54 126.129C54 105.77 60.2108 84.5235 71.7293 68.4178C83.2233 52.3464 99.9224 41.4753 121.03 41.4753C142.131 41.4753 158.56 52.3387 169.788 68.4003C181.045 84.5013 187 105.751 187 126.129Z" fill="#FFE9E0" stroke="#323232" stroke-width="4" stroke-linecap="round"/>
<path d="M120.842 124.475C118.975 132.863 118 137.246 118 145.973C120.501 147.527 122.892 147.916 127 147.872" stroke="#323232" stroke-width="4" stroke-linecap="round" stroke-linejoin="round"/>
<path d="M85.7677 131.547C87.8292 131.547 89.6574 130.432 90.9532 128.704C92.2488 126.977 93.0354 124.613 93.0354 122.024C93.0354 119.434 92.2488 117.07 90.9532 115.343C89.6574 113.615 87.8292 112.5 85.7677 112.5C83.7062 112.5 81.878 113.615 80.5822 115.343C79.2866 117.07 78.5 119.434 78.5 122.024C78.5 124.613 79.2866 126.977 80.5822 128.704C81.878 130.432 83.7062 131.547 85.7677 131.547Z" fill="#323232" stroke="#323232" stroke-linecap="round"/>
<circle cx="88.6162" cy="119.809" r="2.5" fill="white" stroke="#323232"/>
<path d="M157.768 131.547C159.829 131.547 161.657 130.432 162.953 128.704C164.249 126.977 165.035 124.613 165.035 122.024C165.035 119.434 164.249 117.07 162.953 115.343C161.657 113.615 159.829 112.5 157.768 112.5C155.706 112.5 153.878 113.615 152.582 115.343C151.287 117.07 150.5 119.434 150.5 122.024C150.5 124.613 151.287 126.977 152.582 128.704C153.878 130.432 155.706 131.547 157.768 131.547Z" fill="#323232" stroke="#323232" stroke-linecap="round"/>
<circle cx="160.616" cy="119.809" r="2" fill="white"/>
<path d="M112 159.475C115 163.142 122.8 168.275 130 159.475" stroke="#323232" stroke-width="4" stroke-linecap="round" stroke-linejoin="round"/>
</g>
<path d="M40.5001 68.7973C38.8598 46.724 45.0001 35.2973 63.5 30.7973C63.5 30.7973 118.5 -23.7026 167 12.2974C215.5 48.2973 185.5 109.5 185.5 109.5C174 94 168.966 90.8931 170 71.2973C128.157 83.8709 110.716 80.1466 87.5 54.2973C84.4808 70.9869 81.0001 77 69.0001 84C71.1473 96.313 58.5001 107 55.0001 110.5C43.8362 98.258 41.7231 89.3018 40.5001 68.7973Z" fill="#323232"/>
<path d="M85.6365 220.566C101.781 248.54 140.874 246.35 153.064 220.821C153.396 220.127 154.144 219.922 154.623 220.139C181.582 232.357 199.284 245.353 211.373 262.321C223.476 279.308 230.102 300.482 234.512 329.356C234.604 329.958 234.132 330.5 233.538 330.5H3.47117C2.87815 330.5 2.40543 329.956 2.5001 329.354C7.26355 299.036 15.0978 277.611 27.931 260.851C40.765 244.091 58.7469 231.803 84.1803 220.032C84.6375 219.82 85.3031 219.988 85.6365 220.566Z" fill="white" stroke="#323232" stroke-width="4" stroke-linecap="round" stroke-linejoin="round"/>
<path d="M2.5001 329.354C7.2145 299.348 14.9367 278.053 27.5351 261.372C40.1322 244.692 57.7489 232.433 82.617 220.761C83.253 220.462 84 220.924 84 221.65V329.5C84 330.052 83.5523 330.5 83 330.5H3.47118C2.87815 330.5 2.40543 329.956 2.5001 329.354Z" fill="#C04040" stroke="#323232" stroke-width="4" stroke-linecap="round" stroke-linejoin="round"/>
<path d="M235.5 329.354C230.786 299.348 223.063 278.053 210.465 261.372C197.868 244.692 180.251 232.433 155.383 220.761C154.747 220.462 154 220.924 154 221.65V329.5C154 330.052 154.448 330.5 155 330.5H234.529C235.122 330.5 235.595 329.956 235.5 329.354Z" fill="#C04040" stroke="#323232" stroke-width="4" stroke-linecap="round" stroke-linejoin="round"/>
<path d="M110.609 122.611C119.886 118.905 124.929 118.813 133.609 122.611" stroke="#323232" stroke-width="4" stroke-linecap="round"/>
<path d="M64 117.799L56.1094 110.135" stroke="#323232" stroke-width="4"/>
<path d="M178.049 113.439L186.609 109.635" stroke="#323232" stroke-width="4"/>
<path fill-rule="evenodd" clip-rule="evenodd" d="M88.7689 100.07L92.3553 103.657L62.6569 133.355L61.2548 131.953C61.0934 131.311 60.9557 130.658 60.8428 129.994C60.5087 128.031 60.4097 126.081 60.5254 124.173L84.6575 100.041C86.0447 99.9415 87.4185 99.9537 88.7689 100.07Z" fill="white" fill-opacity="0.15"/>
<path d="M110.001 121.631C112.189 134.493 103.426 146.749 90.3758 148.969C77.3258 151.189 65.0026 142.521 62.8144 129.659C60.6263 116.797 69.3898 104.541 82.4397 102.321C95.4897 100.101 107.813 108.769 110.001 121.631Z" fill="url(#paint0_linear_302_1668)" fill-opacity="0.3" stroke="#323232" stroke-width="4"/>
<path fill-rule="evenodd" clip-rule="evenodd" d="M183.886 126.612C183.957 124.865 183.848 123.086 183.543 121.296C183.512 121.111 183.478 120.927 183.443 120.744L180.941 118.243L149.78 149.404L150.681 150.305C153.396 151.086 156.273 151.434 159.217 151.28L183.886 126.612Z" fill="white" fill-opacity="0.15"/>
<path d="M181.571 121.631C183.759 134.493 174.996 146.749 161.946 148.969C148.896 151.189 136.573 142.521 134.384 129.659C132.196 116.797 140.96 104.541 154.01 102.321C167.06 100.101 179.383 108.769 181.571 121.631Z" fill="url(#paint1_linear_302_1668)" fill-opacity="0.3" stroke="#323232" stroke-width="4"/>
<defs>
<linearGradient id="paint0_linear_302_1668" x1="82.1043" y1="100.349" x2="106.109" y2="149.635" gradientUnits="userSpaceOnUse">
<stop stop-color="white"/>
<stop offset="1" stop-color="#C0C8FE" stop-opacity="0"/>
</linearGradient>
<linearGradient id="paint1_linear_302_1668" x1="153.674" y1="100.349" x2="177.679" y2="149.635" gradientUnits="userSpaceOnUse">
<stop stop-color="white"/>
<stop offset="1" stop-color="#C0C8FE" stop-opacity="0"/>
</linearGradient>
<clipPath id="clip0_302_1668">
<rect width="137" height="190" fill="white" transform="translate(52 0.797363)"/>
</clipPath>
</defs>
</svg>
