<svg width="238" height="334" viewBox="0 0 238 334" fill="none" xmlns="http://www.w3.org/2000/svg">
<path d="M238 181.493C238 256.879 171.367 275 122.493 275C73.6197 275 0 256.879 0 181.493C0 106.107 40.0548 2.53946 122.493 2.00206C204.932 1.46466 238 106.107 238 181.493Z" fill="#323232"/>
<rect x="86" y="135" width="68.2139" height="128.131" rx="13.7769" fill="#FFE9E0" stroke="#323232" stroke-width="4" stroke-linecap="round"/>
<path d="M87.896 217.634V176.678H156.5C151.333 197.68 120.523 218.768 87.896 217.634Z" fill="#F8CBB9"/>
<path d="M78 129.5C78 141.189 67.4499 151 54 151C40.5501 151 30 141.189 30 129.5C30 117.811 40.5501 108 54 108C67.4499 108 78 117.811 78 129.5Z" fill="#FFE9E0" stroke="#323232" stroke-width="4"/>
<path d="M165 129.5C165 141.189 175.55 151 189 151C202.45 151 213 141.189 213 129.5C213 117.811 202.45 108 189 108C175.55 108 165 117.811 165 129.5Z" fill="#FFE9E0" stroke="#323232" stroke-width="4"/>
<path d="M188 119.261C188 141.713 182.042 158.834 170.986 170.337C159.941 181.828 143.532 188 122.03 188C100.526 188 83.8421 181.827 72.5286 170.321C61.2107 158.81 55 141.69 55 119.261C55 96.8036 61.2318 73.379 72.779 55.6291C84.311 37.9028 101.009 26 122.03 26C143.043 26 159.472 37.8934 170.74 55.6117C182.025 73.3582 188 96.7871 188 119.261Z" fill="#FFE9E0" stroke="#323232" stroke-width="4" stroke-linecap="round"/>
<path d="M122 118C120.029 124.812 119 128.371 119 135.458C121.64 136.72 124.163 137.036 128.5 137" stroke="#323232" stroke-width="4" stroke-linecap="round" stroke-linejoin="round"/>
<path d="M86.7677 129.225C88.8292 129.225 90.6574 128.11 91.9532 126.382C93.2488 124.655 94.0354 122.291 94.0354 119.702C94.0354 117.112 93.2488 114.748 91.9532 113.021C90.6574 111.293 88.8292 110.178 86.7677 110.178C84.7062 110.178 82.878 111.293 81.5822 113.021C80.2866 114.748 79.5 117.112 79.5 119.702C79.5 122.291 80.2866 124.655 81.5822 126.382C82.878 128.11 84.7062 129.225 86.7677 129.225Z" fill="#323232" stroke="#323232" stroke-linecap="round"/>
<circle cx="89.6162" cy="117.487" r="2.5" fill="white" stroke="#323232"/>
<path d="M158.768 129.225C160.829 129.225 162.657 128.11 163.953 126.382C165.249 124.655 166.035 122.291 166.035 119.702C166.035 117.112 165.249 114.748 163.953 113.021C162.657 111.293 160.829 110.178 158.768 110.178C156.706 110.178 154.878 111.293 153.582 113.021C152.287 114.748 151.5 117.112 151.5 119.702C151.5 122.291 152.287 124.655 153.582 126.382C154.878 128.11 156.706 129.225 158.768 129.225Z" fill="#323232" stroke="#323232" stroke-linecap="round"/>
<circle cx="161.616" cy="117.487" r="2" fill="white"/>
<path d="M114 152.5C117 156.167 124.8 161.3 132 152.5" stroke="#323232" stroke-width="4" stroke-linecap="round" stroke-linejoin="round"/>
<g filter="url(#filter0_f_302_1644)">
<ellipse cx="82.5" cy="147.5" rx="9.5" ry="5.5" fill="#FC9D80"/>
</g>
<g filter="url(#filter1_f_302_1644)">
<ellipse cx="161.5" cy="147.5" rx="9.5" ry="5.5" fill="#FC9D80"/>
</g>
<path d="M152.838 63.678C124.838 103.678 99.1357 106.762 52 111C60.748 49.7943 56.5 28 128.5 25C186 28.5 184.619 59.613 186 111C168.838 101.678 165.182 95.4805 152.838 63.678Z" fill="#323232"/>
<path d="M86.6346 221.574C102.779 249.669 141.879 247.467 154.067 221.829C154.398 221.133 155.147 220.928 155.627 221.146C182.585 233.418 200.286 246.471 212.376 263.515C224.479 280.58 231.105 301.851 235.514 330.856C235.606 331.459 235.134 332 234.54 332H4.46901C3.87644 332 3.40346 331.457 3.49773 330.854C8.26057 300.398 16.0946 278.875 28.9283 262.039C41.7623 245.204 59.744 232.861 85.1766 221.039C85.6344 220.826 86.3017 220.994 86.6346 221.574Z" fill="white" stroke="#323232" stroke-width="4" stroke-linecap="round" stroke-linejoin="round"/>
<path d="M119.818 276.551L121.535 279.217L123.202 276.519L157.749 220.593C174.555 228.876 183.1 235.001 198 248.676V332H42V248.677C56.9021 235.035 66.8088 228.898 83.7803 220.577L119.818 276.551Z" fill="#C04040" stroke="#323232" stroke-width="4"/>
<defs>
<filter id="filter0_f_302_1644" x="61" y="130" width="43" height="35" filterUnits="userSpaceOnUse" color-interpolation-filters="sRGB">
<feFlood flood-opacity="0" result="BackgroundImageFix"/>
<feBlend mode="normal" in="SourceGraphic" in2="BackgroundImageFix" result="shape"/>
<feGaussianBlur stdDeviation="6" result="effect1_foregroundBlur_302_1644"/>
</filter>
<filter id="filter1_f_302_1644" x="140" y="130" width="43" height="35" filterUnits="userSpaceOnUse" color-interpolation-filters="sRGB">
<feFlood flood-opacity="0" result="BackgroundImageFix"/>
<feBlend mode="normal" in="SourceGraphic" in2="BackgroundImageFix" result="shape"/>
<feGaussianBlur stdDeviation="6" result="effect1_foregroundBlur_302_1644"/>
</filter>
</defs>
</svg>
