
<svg width="100%" height="100%" id="svg" viewBox="0 0 1440 600" xmlns="http://www.w3.org/2000/svg" class="transition duration-300 ease-in-out delay-150"><defs><linearGradient id="gradient" x1="0%" y1="50%" x2="100%" y2="50%"><stop offset="5%" stop-color="#002bdc"></stop><stop offset="95%" stop-color="#32ded4"></stop></linearGradient></defs><path d="M 0,600 C 0,600 0,150 0,150 C 24.849492675092314,158.1151196674291 49.69898535018463,166.23023933485817 87,178 C 124.30101464981537,189.76976066514183 174.05355127435385,205.19416232799642 206,186 C 237.94644872564615,166.80583767200358 252.08680955239987,112.99311135315624 282,94 C 311.91319044760013,75.00688864684376 357.59921051604675,90.83339225937866 389,114 C 420.40078948395325,137.16660774062134 437.5163483834131,167.67331960932913 471,178 C 504.4836516165869,188.32668039067087 554.3353959503006,178.47332930330484 589,165 C 623.6646040496994,151.52667069669516 643.1420678153845,134.43336317745155 676,128 C 708.8579321846155,121.56663682254843 755.0963327881614,125.79321798688893 785,120 C 814.9036672118386,114.20678201311107 828.4726010319702,98.39376487499266 852,103 C 875.5273989680298,107.60623512500734 909.0132630839578,132.63172251314037 942,132 C 974.9867369160422,131.36827748685963 1007.4743466321991,105.07934507244582 1042,124 C 1076.525653367801,142.92065492755418 1113.0893503872455,207.05089719707638 1152,206 C 1190.9106496127545,204.94910280292362 1232.1682518188186,138.7170661392487 1263,128 C 1293.8317481811814,117.28293386075133 1314.2376423374803,162.08083824592896 1342,175 C 1369.7623576625197,187.91916175407104 1404.8811788312598,168.95958087703553 1440,150 C 1440,150 1440,600 1440,600 Z" stroke="none" stroke-width="0" fill="url(#gradient)" fill-opacity="0.4" class="transition-all duration-300 ease-in-out delay-150 path-0"></path><defs><linearGradient id="gradient" x1="0%" y1="50%" x2="100%" y2="50%"><stop offset="5%" stop-color="#002bdc"></stop><stop offset="95%" stop-color="#32ded4"></stop></linearGradient></defs><path d="M 0,600 C 0,600 0,300 0,300 C 39.17792975655752,300.3400567261883 78.35585951311504,300.68011345237665 109,287 C 139.64414048688496,273.31988654762335 161.75449170409735,245.61960291668177 190,245 C 218.24550829590265,244.38039708331823 252.62617367049563,270.84147488089627 289,282 C 325.37382632950437,293.15852511910373 363.74081361392007,289.0144975597333 398,275 C 432.25918638607993,260.9855024402667 462.410571873824,237.10053488017058 494,259 C 525.589428126176,280.8994651198294 558.6168988907837,348.5833629195845 588,350 C 617.3831011092163,351.4166370804155 643.121832563041,286.56601344149146 673,266 C 702.878167436959,245.4339865585085 736.895770857052,269.15258331444966 773,267 C 809.104229142948,264.84741668555034 847.295084008751,236.82365330070974 877,249 C 906.704915991249,261.17634669929026 927.9238931079439,313.5528034827114 956,318 C 984.0761068920561,322.4471965172886 1019.0093435594736,278.96513276844473 1057,274 C 1094.9906564405264,269.03486723155527 1136.0387326541618,302.5866654435097 1167,301 C 1197.9612673458382,299.4133345564903 1218.8357258238793,262.68820545751663 1243,246 C 1267.1642741761207,229.31179454248337 1294.61836405032,232.6605127264238 1328,245 C 1361.38163594968,257.3394872735762 1400.69081797484,278.6697436367881 1440,300 C 1440,300 1440,600 1440,600 Z" stroke="none" stroke-width="0" fill="url(#gradient)" fill-opacity="0.53" class="transition-all duration-300 ease-in-out delay-150 path-1"></path><defs><linearGradient id="gradient" x1="0%" y1="50%" x2="100%" y2="50%"><stop offset="5%" stop-color="#002bdc"></stop><stop offset="95%" stop-color="#32ded4"></stop></linearGradient></defs><path d="M 0,600 C 0,600 0,450 0,450 C 22.724311737994284,478.2157585798417 45.44862347598857,506.4315171596833 81,486 C 116.55137652401143,465.5684828403167 164.92981783404,396.48968994110817 202,400 C 239.07018216596,403.51031005889183 264.8321051878516,479.60972307588384 296,505 C 327.1678948121484,530.3902769241162 363.74176141455376,505.0714177553563 397,490 C 430.25823858544624,474.9285822446437 460.20084915393363,470.104605902691 488,476 C 515.7991508460664,481.895394097309 541.4548419697118,498.5101586338796 575,501 C 608.5451580302882,503.4898413661204 649.9797829672192,491.85475956179033 686,471 C 722.0202170327808,450.14524043820967 752.6260261614113,420.07080311895913 784,421 C 815.3739738385887,421.92919688104087 847.5161123871349,453.86202796237336 878,476 C 908.4838876128651,498.13797203762664 937.3095242900496,510.48108503154765 966,503 C 994.6904757099504,495.51891496845235 1023.2457904526661,468.21363191143615 1055,453 C 1086.7542095473339,437.78636808856385 1121.7073138992853,434.66438732270785 1149,425 C 1176.2926861007147,415.33561267729215 1195.9249539501923,399.1288187977325 1232,414 C 1268.0750460498077,428.8711812022675 1320.592870299945,474.8203374863621 1358,486 C 1395.407129700055,497.1796625136379 1417.7035648500275,473.5898312568189 1440,450 C 1440,450 1440,600 1440,600 Z" stroke="none" stroke-width="0" fill="url(#gradient)" fill-opacity="1" class="transition-all duration-300 ease-in-out delay-150 path-2"></path></svg>